<?xml version="1.0" encoding="utf-8"?>
<!-- Generator: Adobe Illustrator 22.0.1, SVG Export Plug-In . SVG Version: 6.00 Build 0)  -->
<svg version="1.1" id="Layer_1" xmlns="http://www.w3.org/2000/svg" xmlns:xlink="http://www.w3.org/1999/xlink" x="0px" y="0px"
	 viewBox="0 0 400 400" style="enable-background:new 0 0 400 400;" xml:space="preserve">
<style type="text/css">
	.st0{fill:url(#SVGID_1_);}
	.st1{fill:url(#SVGID_2_);}
	.st2{fill:url(#SVGID_3_);}
	.st3{fill:url(#SVGID_4_);}
	.st4{fill:url(#SVGID_5_);}
	.st5{fill:url(#SVGID_6_);}
	.st6{fill:url(#SVGID_7_);}
	.st7{fill:url(#SVGID_8_);}
	.st8{fill:url(#SVGID_9_);}
	.st9{fill:url(#SVGID_10_);}
	.st10{fill:url(#SVGID_11_);}
	.st11{fill:url(#SVGID_12_);}
	.st12{fill:url(#SVGID_13_);}
	.st13{fill:url(#SVGID_14_);}
	.st14{fill:url(#SVGID_15_);}
	.st15{fill:url(#SVGID_16_);}
	.st16{fill:url(#SVGID_17_);}
	.st17{fill:url(#SVGID_18_);}
</style>
<linearGradient id="SVGID_1_" gradientUnits="userSpaceOnUse" x1="-1428.8634" y1="590.9363" x2="-1179.373" y2="599.9836" gradientTransform="matrix(-0.7071 0.7071 -0.7071 -0.7071 -271.7282 1572.9554)">
	<stop  offset="2.038982e-02" style="stop-color:#4F65AA"/>
	<stop  offset="1" style="stop-color:#313D6F"/>
</linearGradient>
<path class="st0" d="M263.9,65.2c108.4-18.9,132.6,140.4,85.9,210.6s-127,61-189.5-1.7C71.7,185.3,200.5,76.2,263.9,65.2z"/>
<linearGradient id="SVGID_2_" gradientUnits="userSpaceOnUse" x1="-1360.2023" y1="713.6634" x2="-1154.3615" y2="523.8268" gradientTransform="matrix(-0.7071 0.7071 -0.7071 -0.7071 -271.7282 1572.9554)">
	<stop  offset="0" style="stop-color:#B8F0F4"/>
	<stop  offset="1" style="stop-color:#68D6E4"/>
</linearGradient>
<path class="st1" d="M195.4,58.8C317,37.6,344.2,216.3,291.7,295s-142.4,68.5-212.6-1.9C-20.2,193.5,124.3,71.2,195.4,58.8z"/>
<linearGradient id="SVGID_3_" gradientUnits="userSpaceOnUse" x1="-330.3606" y1="-339.3964" x2="-225.2952" y2="-455.5542" gradientTransform="matrix(0.3474 -0.511 0.6037 0.3527 398.8388 255.8935)">
	<stop  offset="0" style="stop-color:#F2517F"/>
	<stop  offset="1" style="stop-color:#F22354"/>
</linearGradient>
<path class="st2" d="M33.9,208.7c-18.9,24.1-19.4,75.5,22.7,97.4C95,326,115,303.6,108,280.1c-4.2-14.4-13.9-12-16.8-49.6
	C87.4,180.5,52.4,185.2,33.9,208.7z"/>
<linearGradient id="SVGID_4_" gradientUnits="userSpaceOnUse" x1="343.2926" y1="279.1288" x2="71.1625" y2="111.1905">
	<stop  offset="2.038982e-02" style="stop-color:#FFFFFF"/>
	<stop  offset="1" style="stop-color:#E3E3E3"/>
</linearGradient>
<path class="st3" d="M323.2,292.4H102.6c-11.3,0-20.4-9.1-20.4-20.4V125.3c0-11.3,9.1-20.4,20.4-20.4h220.6
	c11.3,0,20.4,9.1,20.4,20.4V272C343.6,283.3,334.4,292.4,323.2,292.4z"/>
<g>
	<linearGradient id="SVGID_5_" gradientUnits="userSpaceOnUse" x1="41.8986" y1="293.3303" x2="58.4438" y2="293.3303">
		<stop  offset="0" style="stop-color:#F7BAC0"/>
		<stop  offset="1" style="stop-color:#FC9399"/>
	</linearGradient>
	<line class="st4" x1="58.4" y1="293.3" x2="41.9" y2="293.3"/>
	<linearGradient id="SVGID_6_" gradientUnits="userSpaceOnUse" x1="77.147" y1="293.3303" x2="93.6922" y2="293.3303">
		<stop  offset="0" style="stop-color:#F7BAC0"/>
		<stop  offset="1" style="stop-color:#FC9399"/>
	</linearGradient>
	<line class="st5" x1="93.7" y1="293.3" x2="77.1" y2="293.3"/>
</g>
<g>
	
		<linearGradient id="SVGID_7_" gradientUnits="userSpaceOnUse" x1="-882.9139" y1="-199.3156" x2="-882.9139" y2="-199.3156" gradientTransform="matrix(0 1 -1 0 -118.4519 955.1623)">
		<stop  offset="0" style="stop-color:#F2517F"/>
		<stop  offset="1" style="stop-color:#F22354"/>
	</linearGradient>
	<line class="st6" x1="72.6" y1="72.2" x2="89.1" y2="72.2"/>
	
		<linearGradient id="SVGID_8_" gradientUnits="userSpaceOnUse" x1="-882.9139" y1="-234.5641" x2="-882.9139" y2="-234.5641" gradientTransform="matrix(0 1 -1 0 -118.4519 955.1623)">
		<stop  offset="0" style="stop-color:#F2517F"/>
		<stop  offset="1" style="stop-color:#F22354"/>
	</linearGradient>
	<line class="st7" x1="107.8" y1="72.2" x2="124.4" y2="72.2"/>
	
		<linearGradient id="SVGID_9_" gradientUnits="userSpaceOnUse" x1="-918.1623" y1="-216.9398" x2="-847.6655" y2="-216.9398" gradientTransform="matrix(0 1 -1 0 -118.4519 955.1623)">
		<stop  offset="0" style="stop-color:#F2517F"/>
		<stop  offset="1" style="stop-color:#F22354"/>
	</linearGradient>
	<path class="st8" d="M98.5,107.5c-5.2,0-9.4-4.2-9.4-9.4V81.6H72.6c-5.2,0-9.4-4.2-9.4-9.4s4.2-9.4,9.4-9.4h16.5V46.4
		c0-5.2,4.2-9.4,9.4-9.4c5.2,0,9.4,4.2,9.4,9.4v16.5h16.5c5.2,0,9.4,4.2,9.4,9.4s-4.2,9.4-9.4,9.4h-16.5v16.5
		C107.8,103.3,103.7,107.5,98.5,107.5z"/>
</g>
<g>
	
		<linearGradient id="SVGID_10_" gradientUnits="userSpaceOnUse" x1="446.005" y1="563.9228" x2="457.7017" y2="563.9228" gradientTransform="matrix(1 0 0 1 -228.1808 -217.1228)">
		<stop  offset="2.038982e-02" style="stop-color:#4F65AA"/>
		<stop  offset="1" style="stop-color:#313D6F"/>
	</linearGradient>
	<line class="st9" x1="229.5" y1="341" x2="217.8" y2="352.6"/>
	
		<linearGradient id="SVGID_11_" gradientUnits="userSpaceOnUse" x1="470.9235" y1="539.0043" x2="482.6202" y2="539.0043" gradientTransform="matrix(1 0 0 1 -228.1808 -217.1228)">
		<stop  offset="2.038982e-02" style="stop-color:#4F65AA"/>
		<stop  offset="1" style="stop-color:#313D6F"/>
	</linearGradient>
	<line class="st10" x1="254.4" y1="316" x2="242.7" y2="327.7"/>
	
		<linearGradient id="SVGID_12_" gradientUnits="userSpaceOnUse" x1="436.6462" y1="551.46" x2="491.979" y2="551.46" gradientTransform="matrix(1 0 0 1 -228.1808 -217.1228)">
		<stop  offset="2.038982e-02" style="stop-color:#4F65AA"/>
		<stop  offset="1" style="stop-color:#313D6F"/>
	</linearGradient>
	<path class="st11" d="M261.1,346c3.7,3.6,3.7,9.6,0,13.2c-1.8,1.8-4.2,2.7-6.6,2.7c-2.4,0-4.8-0.9-6.6-2.7l-11.7-11.7l-11.7,11.7
		c-1.8,1.8-4.2,2.7-6.6,2.7c-2.4,0-4.8-0.9-6.6-2.7c-3.7-3.7-3.7-9.6,0-13.2l11.7-11.7l-11.7-11.7c-3.7-3.7-3.7-9.6,0-13.2
		c3.7-3.7,9.6-3.7,13.2,0l11.7,11.7l11.7-11.7c3.7-3.7,9.6-3.7,13.2,0c3.7,3.7,3.7,9.6,0,13.2l-11.7,11.7L261.1,346z"/>
</g>
<g>
	<linearGradient id="SVGID_13_" gradientUnits="userSpaceOnUse" x1="167.6432" y1="202.2152" x2="245.2963" y2="202.2152">
		<stop  offset="2.038982e-02" style="stop-color:#4F65AA"/>
		<stop  offset="1" style="stop-color:#313D6F"/>
	</linearGradient>
	<line class="st12" x1="167.6" y1="241" x2="245.3" y2="163.4"/>
	<linearGradient id="SVGID_14_" gradientUnits="userSpaceOnUse" x1="252.8416" y1="153.7999" x2="256.9286" y2="153.7999">
		<stop  offset="2.038982e-02" style="stop-color:#4F65AA"/>
		<stop  offset="1" style="stop-color:#313D6F"/>
	</linearGradient>
	<line class="st13" x1="252.8" y1="155.8" x2="256.9" y2="151.8"/>
	<linearGradient id="SVGID_15_" gradientUnits="userSpaceOnUse" x1="239.0086" y1="150.9327" x2="276.4959" y2="150.9327">
		<stop  offset="2.038982e-02" style="stop-color:#4F65AA"/>
		<stop  offset="1" style="stop-color:#313D6F"/>
	</linearGradient>
	<path class="st14" d="M270.8,165.6l-4.1,4.1L239,142l4.1-4.1c7.6-7.6,20-7.6,27.7,0C278.4,145.6,278.4,157.9,270.8,165.6z"/>
	<linearGradient id="SVGID_16_" gradientUnits="userSpaceOnUse" x1="155.0679" y1="201.5864" x2="259.1292" y2="201.5864">
		<stop  offset="2.038982e-02" style="stop-color:#4F65AA"/>
		<stop  offset="1" style="stop-color:#313D6F"/>
	</linearGradient>
	<polygon class="st15" points="259.1,177.2 182.7,253.6 155.1,226 231.5,149.6 	"/>
</g>
<linearGradient id="SVGID_17_" gradientUnits="userSpaceOnUse" x1="142.9122" y1="249.7467" x2="174.4626" y2="249.7467">
	<stop  offset="2.038982e-02" style="stop-color:#4F65AA"/>
	<stop  offset="1" style="stop-color:#313D6F"/>
</linearGradient>
<path class="st16" d="M143,259l2.8-20.2c0.7-4.7,6.4-6.6,9.7-3.2l17.3,17.3c3.3,3.3,1.4,9-3.2,9.7l-20.1,2.9
	C145.7,266,142.4,262.8,143,259z"/>
<linearGradient id="SVGID_18_" gradientUnits="userSpaceOnUse" x1="317.0925" y1="59.2899" x2="345.8668" y2="59.2899">
	<stop  offset="0" style="stop-color:#B8F0F4"/>
	<stop  offset="1" style="stop-color:#68D6E4"/>
</linearGradient>
<circle class="st17" cx="331.5" cy="59.3" r="14.4"/>
</svg>
