<?xml version="1.0" encoding="utf-8"?>
<!-- Generator: Adobe Illustrator 22.0.1, SVG Export Plug-In . SVG Version: 6.00 Build 0)  -->
<svg version="1.1" id="Layer_1" xmlns="http://www.w3.org/2000/svg" xmlns:xlink="http://www.w3.org/1999/xlink" x="0px" y="0px"
	 viewBox="0 0 400 400" style="enable-background:new 0 0 400 400;" xml:space="preserve">
<style type="text/css">
	.st0{fill:url(#SVGID_1_);}
	.st1{fill:url(#SVGID_2_);}
	.st2{fill:url(#SVGID_3_);}
	.st3{fill:url(#SVGID_4_);}
	.st4{fill:url(#SVGID_5_);}
	.st5{fill:url(#SVGID_6_);}
	.st6{fill:url(#SVGID_7_);}
	.st7{fill:url(#SVGID_8_);}
	.st8{fill:url(#SVGID_9_);}
	.st9{fill:url(#SVGID_10_);}
	.st10{fill:url(#SVGID_11_);}
	.st11{fill:url(#SVGID_12_);}
	.st12{fill:url(#SVGID_13_);}
	.st13{fill:url(#SVGID_14_);}
	.st14{fill:url(#SVGID_15_);}
	.st15{fill:url(#SVGID_16_);}
	.st16{fill:url(#SVGID_17_);}
</style>
<linearGradient id="SVGID_1_" gradientUnits="userSpaceOnUse" x1="71.4102" y1="164.766" x2="320.3926" y2="173.7949">
	<stop  offset="2.038982e-02" style="stop-color:#4F65AA"/>
	<stop  offset="1" style="stop-color:#313D6F"/>
</linearGradient>
<path class="st0" d="M55.4,261c-89.8-63.1,5.5-192.7,88-209.2S276.1,98.3,276,186.7C275.8,311.9,108,298,55.4,261z"/>
<linearGradient id="SVGID_2_" gradientUnits="userSpaceOnUse" x1="139.9317" y1="287.2432" x2="345.3532" y2="97.7931">
	<stop  offset="0" style="stop-color:#B8F0F4"/>
	<stop  offset="1" style="stop-color:#68D6E4"/>
</linearGradient>
<path class="st1" d="M99.2,313.9c-100.8-70.8,6.2-216.1,98.7-234.7s148.8,52.2,148.7,151.3C346.4,371,158.2,355.3,99.2,313.9z"/>
<linearGradient id="SVGID_3_" gradientUnits="userSpaceOnUse" x1="46.6378" y1="2218.5959" x2="151.4893" y2="2102.6748" gradientTransform="matrix(-0.3019 0.5392 -0.6319 -0.2991 1748.6018 757.3801)">
	<stop  offset="0" style="stop-color:#F2517F"/>
	<stop  offset="1" style="stop-color:#F22354"/>
</linearGradient>
<path class="st2" d="M385.8,210.8c16.7-25.6,12.8-76.8-31-94.9c-39.9-16.5-57.8,7.5-48.9,30.2c5.5,13.9,14.9,10.7,21,47.9
	C335.1,243.5,369.5,235.8,385.8,210.8z"/>
<linearGradient id="SVGID_4_" gradientUnits="userSpaceOnUse" x1="341.2757" y1="289.9185" x2="69.6997" y2="122.3222">
	<stop  offset="2.038982e-02" style="stop-color:#FFFFFF"/>
	<stop  offset="1" style="stop-color:#E3E3E3"/>
</linearGradient>
<path class="st3" d="M321.2,303.2H101.1c-11.2,0-20.3-9.1-20.3-20.3V136.4c0-11.2,9.1-20.3,20.3-20.3h220.2
	c11.2,0,20.3,9.1,20.3,20.3v146.4C341.6,294.1,332.4,303.2,321.2,303.2z"/>
<g>
	<linearGradient id="SVGID_5_" gradientUnits="userSpaceOnUse" x1="128.7723" y1="335.7879" x2="128.7723" y2="335.7879">
		<stop  offset="0" style="stop-color:#F2517F"/>
		<stop  offset="1" style="stop-color:#F22354"/>
	</linearGradient>
	<line class="st4" x1="128.8" y1="344" x2="128.8" y2="327.5"/>
	<linearGradient id="SVGID_6_" gradientUnits="userSpaceOnUse" x1="128.7723" y1="300.6113" x2="128.7723" y2="300.6113">
		<stop  offset="0" style="stop-color:#F2517F"/>
		<stop  offset="1" style="stop-color:#F22354"/>
	</linearGradient>
	<line class="st5" x1="128.8" y1="308.9" x2="128.8" y2="292.4"/>
	<linearGradient id="SVGID_7_" gradientUnits="userSpaceOnUse" x1="93.5957" y1="318.1996" x2="163.949" y2="318.1996">
		<stop  offset="0" style="stop-color:#F2517F"/>
		<stop  offset="1" style="stop-color:#F22354"/>
	</linearGradient>
	<path class="st6" d="M163.9,318.2c0,5.2-4.2,9.3-9.3,9.3h-16.5V344c0,5.2-4.2,9.3-9.3,9.3s-9.3-4.2-9.3-9.3v-16.5h-16.5
		c-5.2,0-9.3-4.2-9.3-9.3c0-5.2,4.2-9.3,9.3-9.3h16.5v-16.5c0-5.2,4.2-9.3,9.3-9.3s9.3,4.2,9.3,9.3v16.5h16.5
		C159.8,308.9,163.9,313,163.9,318.2z"/>
</g>
<g>
	<linearGradient id="SVGID_8_" gradientUnits="userSpaceOnUse" x1="290.7234" y1="65.5288" x2="302.3963" y2="65.5288">
		<stop  offset="2.038982e-02" style="stop-color:#4F65AA"/>
		<stop  offset="1" style="stop-color:#313D6F"/>
	</linearGradient>
	<line class="st7" x1="302.4" y1="71.4" x2="290.7" y2="59.7"/>
	<linearGradient id="SVGID_9_" gradientUnits="userSpaceOnUse" x1="315.5911" y1="90.3966" x2="327.264" y2="90.3966">
		<stop  offset="2.038982e-02" style="stop-color:#4F65AA"/>
		<stop  offset="1" style="stop-color:#313D6F"/>
	</linearGradient>
	<line class="st8" x1="327.3" y1="96.2" x2="315.6" y2="84.6"/>
</g>
<g>
	<linearGradient id="SVGID_10_" gradientUnits="userSpaceOnUse" x1="262.4148" y1="77.2108" x2="274.0877" y2="77.2108">
		<stop  offset="2.038982e-02" style="stop-color:#4F65AA"/>
		<stop  offset="1" style="stop-color:#313D6F"/>
	</linearGradient>
	<line class="st9" x1="274.1" y1="71.4" x2="262.4" y2="83"/>
	<linearGradient id="SVGID_11_" gradientUnits="userSpaceOnUse" x1="287.2825" y1="52.3431" x2="298.9554" y2="52.3431">
		<stop  offset="2.038982e-02" style="stop-color:#4F65AA"/>
		<stop  offset="1" style="stop-color:#313D6F"/>
	</linearGradient>
	<line class="st10" x1="299" y1="46.5" x2="287.3" y2="58.2"/>
	<linearGradient id="SVGID_12_" gradientUnits="userSpaceOnUse" x1="253.0751" y1="64.7733" x2="308.2952" y2="64.7733">
		<stop  offset="2.038982e-02" style="stop-color:#4F65AA"/>
		<stop  offset="1" style="stop-color:#313D6F"/>
	</linearGradient>
	<path class="st11" d="M305.6,76.5c3.6,3.6,3.6,9.5,0,13.2c-1.8,1.8-4.2,2.7-6.6,2.7c-2.4,0-4.8-0.9-6.6-2.7L280.7,78L269,89.7
		c-1.8,1.8-4.2,2.7-6.6,2.7c-2.4,0-4.8-0.9-6.6-2.7c-3.6-3.6-3.6-9.6,0-13.2l11.7-11.7l-11.7-11.7c-3.6-3.6-3.6-9.5,0-13.2
		c3.6-3.6,9.5-3.6,13.2,0l11.7,11.7l11.7-11.7c3.6-3.6,9.6-3.6,13.2,0c3.6,3.6,3.6,9.5,0,13.2l-11.7,11.7L305.6,76.5z"/>
</g>
<g>
	
		<linearGradient id="SVGID_13_" gradientUnits="userSpaceOnUse" x1="-1020.7098" y1="947.1937" x2="-1020.7098" y2="947.1937" gradientTransform="matrix(-1 0 0 -1 -844.7758 1195.4625)">
		<stop  offset="2.038982e-02" style="stop-color:#4F65AA"/>
		<stop  offset="1" style="stop-color:#313D6F"/>
	</linearGradient>
	<path class="st12" d="M175.9,248.3"/>
	
		<linearGradient id="SVGID_14_" gradientUnits="userSpaceOnUse" x1="-1098.2047" y1="1024.6886" x2="-1098.2047" y2="1024.6886" gradientTransform="matrix(-1 0 0 -1 -844.7758 1195.4625)">
		<stop  offset="2.038982e-02" style="stop-color:#4F65AA"/>
		<stop  offset="1" style="stop-color:#313D6F"/>
	</linearGradient>
	<path class="st13" d="M253.4,170.8"/>
	
		<linearGradient id="SVGID_15_" gradientUnits="userSpaceOnUse" x1="-1013.1799" y1="937.6245" x2="-1009.1012" y2="937.6245" gradientTransform="matrix(-1 0 0 -1 -844.7758 1195.4625)">
		<stop  offset="2.038982e-02" style="stop-color:#4F65AA"/>
		<stop  offset="1" style="stop-color:#313D6F"/>
	</linearGradient>
	<line class="st14" x1="168.4" y1="255.8" x2="164.3" y2="259.9"/>
</g>
<linearGradient id="SVGID_16_" gradientUnits="userSpaceOnUse" x1="127.5087" y1="945.6241" x2="227.1248" y2="945.6241" gradientTransform="matrix(0 1 -1 0 1163 38)">
	<stop  offset="2.038982e-02" style="stop-color:#4F65AA"/>
	<stop  offset="1" style="stop-color:#313D6F"/>
</linearGradient>
<path class="st15" d="M254.1,200.2l-56-32.3c-11.6-6.7-26.2,1.7-26.2,15.1v64.7c0,13.4,14.5,21.8,26.2,15.1l56-32.3
	C265.7,223.7,265.7,206.9,254.1,200.2z"/>
<linearGradient id="SVGID_17_" gradientUnits="userSpaceOnUse" x1="2.4235" y1="138.4876" x2="31.1392" y2="138.4876">
	<stop  offset="0" style="stop-color:#B8F0F4"/>
	<stop  offset="1" style="stop-color:#68D6E4"/>
</linearGradient>
<circle class="st16" cx="16.8" cy="138.5" r="14.4"/>
</svg>
