<?xml version="1.0" encoding="utf-8"?>
<!-- Generator: Adobe Illustrator 22.0.1, SVG Export Plug-In . SVG Version: 6.00 Build 0)  -->
<svg version="1.1" id="Layer_1" xmlns="http://www.w3.org/2000/svg" xmlns:xlink="http://www.w3.org/1999/xlink" x="0px" y="0px"
	 viewBox="0 0 400 400" style="enable-background:new 0 0 400 400;" xml:space="preserve">
<style type="text/css">
	.st0{fill:url(#SVGID_1_);}
	.st1{fill:url(#SVGID_2_);}
	.st2{fill:url(#SVGID_3_);}
	.st3{fill:url(#SVGID_4_);}
	.st4{fill:#FFFFFF;}
	.st5{fill:url(#SVGID_5_);}
	.st6{fill:url(#SVGID_6_);}
	.st7{fill:url(#SVGID_7_);}
	.st8{fill:url(#SVGID_8_);}
	.st9{fill:url(#SVGID_9_);}
	.st10{fill:url(#SVGID_10_);}
	.st11{fill:url(#SVGID_11_);}
	.st12{fill:url(#SVGID_12_);}
	.st13{fill:url(#SVGID_13_);}
	.st14{fill:url(#SVGID_14_);}
	.st15{fill:url(#SVGID_15_);}
	.st16{fill:url(#SVGID_16_);}
	.st17{fill:url(#SVGID_17_);}
</style>
<linearGradient id="SVGID_1_" gradientUnits="userSpaceOnUse" x1="83.8442" y1="161.9434" x2="337.4709" y2="171.1407">
	<stop  offset="2.038982e-02" style="stop-color:#4F65AA"/>
	<stop  offset="1" style="stop-color:#313D6F"/>
</linearGradient>
<path class="st0" d="M67.5,260C-24,195.7,73.1,63.7,157.2,46.9s135.2,47.4,135,137.4C292.1,311.8,121.1,297.6,67.5,260z"/>
<linearGradient id="SVGID_2_" gradientUnits="userSpaceOnUse" x1="153.6437" y1="286.7052" x2="362.8971" y2="93.7212">
	<stop  offset="0" style="stop-color:#B8F0F4"/>
	<stop  offset="1" style="stop-color:#68D6E4"/>
</linearGradient>
<path class="st1" d="M112.2,313.9C9.5,241.7,118.4,93.7,212.7,74.8s151.6,53.2,151.5,154.2C364,372,172.2,356.1,112.2,313.9z"/>
<linearGradient id="SVGID_3_" gradientUnits="userSpaceOnUse" x1="-977.2445" y1="-2133.9822" x2="-870.4372" y2="-2252.0657" gradientTransform="matrix(-0.1773 -0.592 -0.6819 0.1545 -1321.1666 89.186)">
	<stop  offset="0" style="stop-color:#F2517F"/>
	<stop  offset="1" style="stop-color:#F22354"/>
</linearGradient>
<path class="st2" d="M380.6,258.6c11,29.2-4.3,79.2-51.8,87.5c-43.3,7.6-55.8-20.2-41.9-40.9c8.5-12.6,17.2-7.4,31.5-43
	C337.4,214.9,369.9,230.2,380.6,258.6z"/>
<linearGradient id="SVGID_4_" gradientUnits="userSpaceOnUse" x1="358.7435" y1="289.4304" x2="82.1017" y2="118.7078">
	<stop  offset="2.038982e-02" style="stop-color:#FFFFFF"/>
	<stop  offset="1" style="stop-color:#E3E3E3"/>
</linearGradient>
<path class="st3" d="M338.3,302.9H114c-11.4,0-20.7-9.3-20.7-20.7V133c0-11.4,9.3-20.7,20.7-20.7h224.3c11.4,0,20.7,9.3,20.7,20.7
	v149.2C359,293.7,349.7,302.9,338.3,302.9z"/>
<path class="st4" d="M262.9,223.4c-3,0-5.4-2.6-5.4-5.9c0-20.9-15.6-37.9-34.7-37.9c-3,0-5.4-2.6-5.4-5.9s2.4-5.9,5.4-5.9
	c25.1,0,45.5,22.3,45.5,49.7C268.3,220.7,265.9,223.4,262.9,223.4z"/>
<linearGradient id="SVGID_5_" gradientUnits="userSpaceOnUse" x1="253.1051" y1="280.6535" x2="295.9096" y2="280.6535">
	<stop  offset="2.038982e-02" style="stop-color:#4F65AA"/>
	<stop  offset="1" style="stop-color:#313D6F"/>
</linearGradient>
<path class="st5" d="M287.4,306.4c-2.6,0-5.2-1.2-6.9-3.4l-25.7-34.3c-2.8-3.8-2.1-9.1,1.7-12c3.8-2.8,9.1-2.1,12,1.7l25.7,34.3
	c2.8,3.8,2.1,9.1-1.7,12C290.9,305.8,289.1,306.4,287.4,306.4z"/>
<linearGradient id="SVGID_6_" gradientUnits="userSpaceOnUse" x1="147.5215" y1="209.8616" x2="299.5075" y2="209.8616">
	<stop  offset="2.038982e-02" style="stop-color:#4F65AA"/>
	<stop  offset="1" style="stop-color:#313D6F"/>
</linearGradient>
<path class="st6" d="M223.5,283.4c-41.9,0-76-33-76-73.6s34.1-73.6,76-73.6s76,33,76,73.6S265.4,283.4,223.5,283.4z M223.5,153.4
	c-32.5,0-58.9,25.3-58.9,56.5s26.4,56.5,58.9,56.5s58.9-25.3,58.9-56.5S256,153.4,223.5,153.4z"/>
<g>
	<linearGradient id="SVGID_7_" gradientUnits="userSpaceOnUse" x1="52.3526" y1="303.8674" x2="69.1721" y2="303.8674">
		<stop  offset="0" style="stop-color:#F7BAC0"/>
		<stop  offset="1" style="stop-color:#FC9399"/>
	</linearGradient>
	<line class="st7" x1="69.2" y1="303.9" x2="52.4" y2="303.9"/>
	<linearGradient id="SVGID_8_" gradientUnits="userSpaceOnUse" x1="88.1854" y1="303.8674" x2="105.0049" y2="303.8674">
		<stop  offset="0" style="stop-color:#F7BAC0"/>
		<stop  offset="1" style="stop-color:#FC9399"/>
	</linearGradient>
	<line class="st8" x1="105" y1="303.9" x2="88.2" y2="303.9"/>
</g>
<g>
	<linearGradient id="SVGID_9_" gradientUnits="userSpaceOnUse" x1="78.6788" y1="321.7838" x2="78.6788" y2="321.7838">
		<stop  offset="0" style="stop-color:#F2517F"/>
		<stop  offset="1" style="stop-color:#F22354"/>
	</linearGradient>
	<line class="st9" x1="78.7" y1="330.2" x2="78.7" y2="313.4"/>
	<linearGradient id="SVGID_10_" gradientUnits="userSpaceOnUse" x1="78.6788" y1="285.951" x2="78.6788" y2="285.951">
		<stop  offset="0" style="stop-color:#F2517F"/>
		<stop  offset="1" style="stop-color:#F22354"/>
	</linearGradient>
	<line class="st10" x1="78.7" y1="294.4" x2="78.7" y2="277.5"/>
	<linearGradient id="SVGID_11_" gradientUnits="userSpaceOnUse" x1="42.846" y1="303.8674" x2="114.5116" y2="303.8674">
		<stop  offset="0" style="stop-color:#F2517F"/>
		<stop  offset="1" style="stop-color:#F22354"/>
	</linearGradient>
	<path class="st11" d="M114.5,303.9c0,5.3-4.3,9.5-9.5,9.5H88.2v16.8c0,5.3-4.3,9.5-9.5,9.5c-5.3,0-9.5-4.3-9.5-9.5v-16.8H52.4
		c-5.3,0-9.5-4.3-9.5-9.5c0-5.3,4.3-9.5,9.5-9.5h16.8v-16.8c0-5.3,4.3-9.5,9.5-9.5c5.3,0,9.5,4.3,9.5,9.5v16.8H105
		C110.3,294.4,114.5,298.6,114.5,303.9z"/>
</g>
<g>
	<linearGradient id="SVGID_12_" gradientUnits="userSpaceOnUse" x1="307.2482" y1="60.8551" x2="319.1389" y2="60.8551">
		<stop  offset="2.038982e-02" style="stop-color:#4F65AA"/>
		<stop  offset="1" style="stop-color:#313D6F"/>
	</linearGradient>
	<line class="st12" x1="319.1" y1="66.8" x2="307.2" y2="54.9"/>
	<linearGradient id="SVGID_13_" gradientUnits="userSpaceOnUse" x1="332.5798" y1="86.1867" x2="344.4705" y2="86.1867">
		<stop  offset="2.038982e-02" style="stop-color:#4F65AA"/>
		<stop  offset="1" style="stop-color:#313D6F"/>
	</linearGradient>
	<line class="st13" x1="344.5" y1="92.1" x2="332.6" y2="80.2"/>
</g>
<g>
	<linearGradient id="SVGID_14_" gradientUnits="userSpaceOnUse" x1="307.2482" y1="86.1867" x2="319.1389" y2="86.1867">
		<stop  offset="2.038982e-02" style="stop-color:#4F65AA"/>
		<stop  offset="1" style="stop-color:#313D6F"/>
	</linearGradient>
	<line class="st14" x1="319.1" y1="80.2" x2="307.2" y2="92.1"/>
	<linearGradient id="SVGID_15_" gradientUnits="userSpaceOnUse" x1="332.5798" y1="60.8551" x2="344.4705" y2="60.8551">
		<stop  offset="2.038982e-02" style="stop-color:#4F65AA"/>
		<stop  offset="1" style="stop-color:#313D6F"/>
	</linearGradient>
	<line class="st15" x1="344.5" y1="54.9" x2="332.6" y2="66.8"/>
	<linearGradient id="SVGID_16_" gradientUnits="userSpaceOnUse" x1="297.7343" y1="73.5172" x2="353.9845" y2="73.5172">
		<stop  offset="2.038982e-02" style="stop-color:#4F65AA"/>
		<stop  offset="1" style="stop-color:#313D6F"/>
	</linearGradient>
	<path class="st16" d="M351.2,85.4c3.7,3.7,3.7,9.7,0,13.4c-1.9,1.9-4.3,2.8-6.7,2.8c-2.4,0-4.9-0.9-6.7-2.8L325.9,87L314,98.9
		c-1.9,1.9-4.3,2.8-6.7,2.8c-2.4,0-4.9-0.9-6.7-2.8c-3.7-3.7-3.7-9.7,0-13.4l11.9-11.9l-11.9-11.9c-3.7-3.7-3.7-9.7,0-13.4
		c3.7-3.7,9.7-3.7,13.4,0l11.9,11.9l11.9-11.9c3.7-3.7,9.7-3.7,13.5,0c3.7,3.7,3.7,9.7,0,13.4l-11.9,11.9L351.2,85.4z"/>
</g>
<linearGradient id="SVGID_17_" gradientUnits="userSpaceOnUse" x1="15.7701" y1="97.6357" x2="45.0214" y2="97.6357">
	<stop  offset="0" style="stop-color:#B8F0F4"/>
	<stop  offset="1" style="stop-color:#68D6E4"/>
</linearGradient>
<circle class="st17" cx="30.4" cy="97.6" r="14.6"/>
</svg>
